<?xml version="1.0" standalone="no"?>
<!DOCTYPE svg PUBLIC "-//W3C//DTD SVG 20010904//EN"
 "http://www.w3.org/TR/2001/REC-SVG-20010904/DTD/svg10.dtd">
<svg version="1.0" xmlns="http://www.w3.org/2000/svg"
 width="120.000000pt" height="120.000000pt" viewBox="0 0 120.000000 120.000000"
 preserveAspectRatio="xMidYMid meet">
<metadata>
Created by potrace 1.11, written by Peter Selinger 2001-2013
</metadata>
<g transform="translate(0.000000,120.000000) scale(0.100000,-0.100000)"
fill="#000000" stroke="none">
<path d="M487 982 c-26 -28 -22 -78 7 -97 64 -42 130 41 76 95 -25 25 -62 26
-83 2z"/>
<path d="M620 920 c-12 -8 -11 -10 6 -10 23 0 74 -42 75 -62 0 -7 2 -20 4 -30
5 -29 -31 -75 -65 -82 -67 -13 -72 -10 -69 37 3 49 14 67 42 67 11 0 17 3 14
7 -4 3 -50 7 -102 8 -52 1 -92 -1 -90 -3 3 -3 15 -10 27 -16 19 -10 23 -21 25
-66 2 -43 -1 -58 -19 -77 l-21 -22 34 10 c19 5 67 12 107 14 106 7 153 36 176
108 21 64 -88 153 -144 117z"/>
<path d="M678 698 c-30 -10 -36 -23 -15 -31 41 -16 64 -142 33 -176 -17 -19
-61 -36 -51 -21 3 5 -13 14 -35 21 l-40 12 0 92 0 91 -35 -4 c-19 -2 -37 -8
-40 -12 -2 -4 -5 -41 -6 -81 -2 -66 -5 -77 -28 -97 l-26 -24 30 7 c47 11 75
13 75 5 0 -4 -20 -10 -44 -12 -24 -3 -53 -12 -64 -19 -18 -13 -13 -15 56 -16
43 0 107 -3 144 -4 55 -3 71 0 94 17 57 42 71 78 66 161 -2 23 -44 78 -71 92
-9 5 -28 4 -43 -1z m-95 -225 c-7 -2 -19 -2 -25 0 -7 3 -2 5 12 5 14 0 19 -2
13 -5z m41 -1 c3 -5 -1 -9 -9 -9 -8 0 -12 4 -9 9 3 4 7 8 9 8 2 0 6 -4 9 -8z"/>
<path d="M50 284 c0 -32 2 -55 5 -52 10 9 12 99 3 104 -4 3 -8 -21 -8 -52z"/>
<path d="M100 340 c-7 -19 -4 -110 5 -110 6 0 9 17 7 43 -3 46 -9 75 -12 67z"/>
<path d="M161 330 c9 -5 20 -22 24 -37 5 -21 1 -31 -17 -46 l-23 -19 25 14
c14 9 26 26 28 40 3 26 -20 58 -41 58 -7 0 -5 -5 4 -10z"/>
<path d="M247 326 c-4 -9 -3 -16 2 -16 4 0 14 -19 21 -42 8 -24 15 -36 17 -27
6 23 -33 104 -40 85z"/>
<path d="M330 326 c0 -17 40 -89 46 -83 5 5 -35 97 -41 97 -3 0 -5 -6 -5 -14z"/>
<path d="M410 330 c-1 -8 -2 -19 -1 -23 1 -5 3 -22 5 -38 5 -40 16 -50 15 -13
-2 38 -16 94 -19 74z"/>
<path d="M464 315 c9 -13 16 -39 16 -56 0 -39 6 -35 13 6 3 20 -2 38 -13 53
-25 30 -36 28 -16 -3z"/>
<path d="M600 286 c0 -34 4 -56 11 -56 6 0 8 7 5 16 -4 9 -1 24 6 32 11 13 11
14 0 8 -9 -6 -11 -1 -8 18 3 14 0 28 -5 31 -5 4 -9 -18 -9 -49z"/>
<path d="M639 326 c6 -7 9 -20 5 -29 -3 -8 -1 -18 5 -21 6 -4 7 -14 4 -24 -5
-13 -3 -15 7 -5 8 7 10 19 5 30 -8 18 -11 28 -13 51 -1 6 -7 12 -13 12 -8 0
-8 -4 0 -14z"/>
<path d="M690 320 c0 -11 4 -20 8 -20 4 0 8 9 9 20 1 11 -2 20 -8 20 -5 0 -9
-9 -9 -20z"/>
<path d="M807 327 c-3 -9 -2 -17 3 -17 6 0 10 -8 10 -17 1 -10 7 -29 15 -43
13 -22 14 -23 14 -5 0 11 -8 38 -18 59 -13 31 -19 36 -24 23z"/>
<path d="M880 320 c-8 -36 3 -83 20 -88 12 -4 13 -2 3 9 -6 8 -13 35 -15 59
-2 33 -4 39 -8 20z"/>
<path d="M949 323 c0 -10 -2 -35 -4 -55 -2 -21 0 -38 5 -38 6 0 10 25 10 55 0
30 -2 55 -5 55 -3 0 -5 -8 -6 -17z"/>
<path d="M1017 289 c2 -69 10 -72 15 -5 2 33 -1 56 -7 56 -6 0 -9 -23 -8 -51z"/>
<path d="M1094 315 c9 -13 16 -38 16 -55 0 -17 4 -29 8 -26 21 13 -7 106 -32
106 -4 0 -1 -11 8 -25z"/>
<path d="M385 289 c-4 -6 -5 -12 -2 -15 2 -3 7 2 10 11 7 17 1 20 -8 4z"/>
<path d="M225 280 c-3 -5 -2 -10 4 -10 5 0 13 5 16 10 3 6 2 10 -4 10 -5 0
-13 -4 -16 -10z"/>
<path d="M690 260 c0 -16 5 -30 10 -30 6 0 8 11 6 24 -2 14 1 27 7 30 7 2 4 5
-5 5 -13 1 -18 -7 -18 -29z"/>
</g>
</svg>
