<svg id="Layer_1" xmlns="http://www.w3.org/2000/svg" width="156" height="50" viewBox="0 0 156 50"><style>.st0{fill:#fff}</style><path class="st0" d="M11.3 40.3c.1.1.1.2 0 .3-.1.1-.2.2-.3.2H.3c-.1 0-.2-.1-.3-.2v-.3L2 37V13.1L0 9.8v-.3c0-.1.2-.2.3-.2H11c.1 0 .2.1.3.2.1.1.1.2 0 .3l-2 3.3V37l2 3.3zm9.7 0c.1.1.1.2 0 .3-.1.1-.2.2-.3.2h-3.5c-.1 0-.2-.1-.3-.2-.1-.1-.1-.2 0-.3l1.8-2.8c.1-.1.2-.2.3-.2s.2.1.3.2l1.7 2.8zM36.3 31v.3l-3.4 7c0 .1-.1.1-.2.2h-.2c-.1 0-.2-.1-.3-.2L20.7 15.1l-1 .2c-.1 0-.2 0-.3-.1-.1-.1-.1-.2-.1-.3v-2l-2.1-3.3c-.1-.1-.1-.2 0-.3.1-.1.2-.2.3-.2h8.2c.1 0 .2.1.3.2L36.3 31zm19.3 9.3c.1.1.1.2 0 .3-.1.1-.2.2-.3.2H44.6c-.1 0-.2-.1-.3-.2-.1-.1-.1-.2 0-.3l2-3.3V15.3l-1-.2c-.1 0-.2-.1-.2-.2v-.3l2.5-5.1c.1-.1.2-.2.3-.2h7.5c.1 0 .2.1.3.2.1.1.1.2 0 .3l-2 3.3V37l1.9 3.3zM70.5 9.7v30.8c0 .2-.2.3-.3.3h-8.7c-.1 0-.2-.1-.3-.2-.1-.1-.1-.2 0-.3l2-3.3V13.2l-2-3.3c-.1-.1-.1-.2 0-.3.1-.1.2-.2.3-.2h8.7c.1-.1.3.1.3.3zm8.4 14c-.1 0-.2-.1-.3-.2-.1-.1 0-.3.1-.4l.6-.6c.6-.7 1-1.6 1.3-2.6.3-1 .4-2 .4-3.1 0-1-.1-2-.3-2.9-.2-1-.6-1.9-1.1-2.6-.3-.5-.7-.9-1.2-1.2-.1-.1-.2-.2-.1-.4.1-.1.2-.2.3-.2 1.3.1 2.5.3 3.5.5 1.4.4 2.7.9 3.6 1.5.9.6 1.6 1.3 2 2.2.5.8.7 1.7.7 2.7 0 .8-.1 1.6-.4 2.3-.3.7-.7 1.4-1.3 2-.6.6-1.4 1.2-2.4 1.7-1 .3-4.1 1-5.4 1.3zm11 9.3c0 1.5-.3 2.7-1 3.7-.6 1-1.6 1.8-2.8 2.4-1.3.6-3 1.1-4.9 1.4-.6.1-1.2.2-2 .2-.1 0-.3-.1-.3-.2-.1-.1 0-.3.1-.4.4-.3.8-.6 1.1-.9.7-.8 1.2-1.7 1.5-2.8.3-1 .4-2.2.4-3.5 0-1.2-.1-2.3-.4-3.4-.3-1.1-.8-2-1.5-2.8l-.8-.8c-.1-.1-.2-.3-.1-.4.1-.1.2-.2.4-.2.6.1 3.9.7 5.2 1.2 1.2.5 2.1 1.1 2.9 1.7.7.6 1.3 1.4 1.7 2.2.3.8.5 1.7.5 2.6zm19.1 8c0 .1-.2.2-.3.2-1.3-.1-2.5-.3-3.6-.7-1.6-.5-2.9-1.2-4.1-2.2-1.1-.9-2-2.1-2.6-3.5-.6-1.4-.9-3-.9-4.8V13.1l-2-3.3c-.1-.1-.1-.2 0-.3.1-.1.2-.2.3-.2h10.7c.1 0 .2.1.3.2.1.1.1.2 0 .3l-2 3.3v17.8c0 1.6.2 3.1.5 4.5.4 1.4.9 2.5 1.6 3.5.5.7 1.2 1.4 1.9 1.8.2 0 .2.2.2.3zm15.5-31.2l-1.8 2.8c-.1.1-.2.2-.3.2-.1 0-.2-.1-.3-.2l-1.8-2.8c-.1-.1-.1-.2 0-.3.1-.1.2-.2.3-.2h3.5c.1 0 .2.1.3.2.2 0 .2.2.1.3zm14.9-.1v30.8c0 .2-.2.3-.3.3h-8.7c-.1 0-.2-.1-.3-.2-.1-.1-.1-.2 0-.3l2-3.3V13.2l-2-3.3c-.1-.1-.1-.2 0-.3.1-.1.2-.2.3-.2h8.7c.2-.1.3.1.3.3zm9.8 12.8v4.7c0 .1-.1.3-.2.3h-.1c-.1 0-.2 0-.2-.1l-2.5-2.5c-.1-.1-.1-.2-.1-.2 0-.1 0-.2.1-.2l2.5-2.2c.1-.1.2-.1.4-.1 0 0 .1.1.1.3zm4.3-7.9l-3.8-4.7c-.1-.1-.1-.2 0-.3.1-.1.2-.2.3-.2h3.8c.2 0 .3.1.3.3v4.7c0 .1-.1.3-.2.3h-.1c-.2 0-.3 0-.3-.1zm2.5 21.3l-.5 4.6c0 .2-.2.3-.3.3h-3.8c-.1 0-.3-.1-.3-.2-.1-.1 0-.3.1-.4l4.4-4.6c.1-.1.3-.1.4-.1-.1.2 0 .3 0 .4z"/></svg>