<svg id="Layer_1" xmlns="http://www.w3.org/2000/svg" width="160" height="34" viewBox="0 0 160 34"><style>.st0{fill:#fff}</style><path class="st0" d="M11.6 33.1c.1.1.1.2 0 .3-.1.1-.2.2-.3.2H.3c-.1 0-.2-.1-.3-.2s-.1-.2 0-.3l2-3.4V4.9L0 1.5c0-.2 0-.3.1-.4S.3.9.4.9h11c.1 0 .2.1.3.2.1.1.1.2 0 .3l-2 3.4v24.8l1.9 3.5zm10 0c.1.1.1.2 0 .3-.1.1-.2.2-.3.2h-3.6c-.1 0-.2-.1-.3-.2-.1-.1-.1-.2 0-.3l1.8-2.9c.1-.1.2-.2.3-.2s.2.1.3.2l1.8 2.9zm15.6-9.6v.3l-3.5 7.3c0 .1-.1.1-.2.2h-.2c-.1 0-.2-.1-.3-.2L21.2 7l-1 .2c-.1 0-.2 0-.3-.1-.1-.1-.1-.2-.1-.3v-2l-2.2-3.4c-.1-.1-.1-.2 0-.3.1-.1.2-.2.3-.2h8.4c.1 0 .3.1.3.2l10.6 22.4zm19.9 9.6c.1.1.1.2 0 .3-.1.1-.2.2-.3.2h-11c-.1 0-.2-.1-.3-.2-.1-.1-.1-.2 0-.3l2-3.4V7.2L46.4 7c-.1 0-.2-.1-.2-.2v-.3l2.5-5.3c.1-.2.3-.3.4-.3h7.7c.1 0 .2.1.3.2.1.1.1.2 0 .3L55 4.9v24.8l2.1 3.4zM72.3 1.3v32c0 .2-.2.3-.3.3h-8.9c-.1 0-.2-.1-.3-.2-.1-.1-.1-.2 0-.3l2-3.5V4.9l-2-3.4c-.1-.1-.1-.2 0-.3.1-.2.2-.2.3-.2H72c.2 0 .3.1.3.3zm8.6 14.5c-.1 0-.2-.1-.3-.2-.1-.1 0-.3.1-.4l.6-.6c.6-.8 1.1-1.7 1.3-2.7.3-1 .4-2.1.4-3.2s-.1-2.1-.3-3.1c-.2-1-.6-1.9-1.1-2.7-.3-.5-.8-.9-1.2-1.3-.1-.1-.2-.3-.1-.4s.2-.2.3-.2c1.3.1 2.5.3 3.6.5 1.5.4 2.7.9 3.7 1.6.9.6 1.6 1.4 2.1 2.2.5.9.7 1.8.7 2.8 0 .8-.1 1.6-.4 2.3-.3.7-.8 1.4-1.4 2.1-.6.7-1.5 1.2-2.4 1.8-1 .5-4.2 1.3-5.6 1.5.1 0 .1 0 0 0zm11.3 9.7c0 1.5-.3 2.8-1 3.8s-1.6 1.8-2.9 2.5c-1.3.7-3 1.1-5 1.4-.6.1-1.2.2-2 .2-.1 0-.3-.1-.3-.2-.1-.1 0-.3.1-.4.4-.3.8-.6 1.1-1 .7-.8 1.2-1.8 1.5-2.9.3-1.1.5-2.3.5-3.7 0-1.3-.1-2.4-.4-3.5-.3-1.1-.8-2.1-1.5-2.9-.3-.3-.5-.6-.8-.8-.1-.1-.2-.3-.1-.4.1-.1.2-.2.4-.2.7.1 4 .7 5.3 1.2 1.2.5 2.2 1.1 2.9 1.8.7.7 1.3 1.4 1.7 2.3.3.9.5 1.8.5 2.8zm19.6 8.4c0 .1-.2.2-.3.2-1.3-.1-2.5-.3-3.7-.7-1.6-.5-3-1.3-4.2-2.3-1.1-1-2-2.2-2.7-3.6-.6-1.4-1-3.1-1-4.9V4.8l-2.1-3.4c-.1-.1-.1-.2 0-.3.2-.1.3-.2.4-.2h11c.1 0 .2.1.3.2.1.1.1.2 0 .3l-2 3.4v18.4c0 1.7.2 3.3.5 4.6.4 1.4.9 2.6 1.7 3.6.6.8 1.2 1.4 2 1.9.1.3.2.4.1.6zm15.9-32.5l-1.8 2.9c-.1.1-.2.2-.3.2-.1 0-.2-.1-.3-.2l-1.8-2.9c-.1-.1-.1-.2 0-.3.1-.1.2-.2.3-.2h3.6c.1 0 .2.1.3.2.1.1.1.2 0 .3zm15.3-.1v32c0 .2-.2.3-.3.3h-8.9c-.1 0-.2-.1-.3-.2s-.1-.2 0-.3l2-3.5V4.9l-2-3.4c-.1-.1-.1-.2 0-.3.1-.1.2-.2.3-.2h8.9c.2 0 .3.1.3.3zm10 13.3v4.8c0 .1-.1.3-.2.3h-.1c-.1 0-.2 0-.2-.1l-2.6-2.6c-.1-.1-.1-.2-.1-.3 0-.1 0-.2.1-.2l2.6-2.3c.1-.1.2-.1.4-.1 0 .2.1.3.1.5zm4.4-8.2l-3.9-4.9c-.1-.1-.1-.2 0-.4.1-.1.2-.2.3-.2h3.9c.2 0 .3.2.3.3v4.9c0 .1-.1.3-.2.3h-.1c-.1.1-.2.1-.3 0zm2.6 22.2l-.6 4.8c0 .2-.2.3-.3.3h-3.9c-.1 0-.3-.1-.3-.2-.1-.1 0-.3.1-.4l4.5-4.8c.1-.1.3-.1.4-.1.1.1.1.2.1.4z"/></svg>