<?xml version="1.0" encoding="UTF-8" standalone="no"?>
<svg
   xmlns:dc="http://purl.org/dc/elements/1.1/"
   xmlns:cc="http://creativecommons.org/ns#"
   xmlns:rdf="http://www.w3.org/1999/02/22-rdf-syntax-ns#"
   xmlns:svg="http://www.w3.org/2000/svg"
   xmlns="http://www.w3.org/2000/svg"
   viewBox="0 0 1122.52 793.70135"
   height="793.70135"
   width="1122.52"
   xml:space="preserve"
   id="svg2"
   version="1.1"><metadata
     id="metadata8"><rdf:RDF><cc:Work
         rdf:about=""><dc:format>image/svg+xml</dc:format><dc:type
           rdf:resource="http://purl.org/dc/dcmitype/StillImage" /></cc:Work></rdf:RDF></metadata><defs
     id="defs6"><linearGradient
       id="linearGradient36"
       spreadMethod="pad"
       gradientTransform="matrix(0,33.932899,33.932899,0,231.0291,212.67511)"
       gradientUnits="userSpaceOnUse"
       y2="0"
       x2="1"
       y1="0"
       x1="0"><stop
         id="stop26"
         offset="0"
         style="stop-opacity:1;stop-color:#a7743b" /><stop
         id="stop28"
         offset="0.19288215"
         style="stop-opacity:1;stop-color:#f8e783" /><stop
         id="stop30"
         offset="0.473761"
         style="stop-opacity:1;stop-color:#f8e783" /><stop
         id="stop32"
         offset="0.67854433"
         style="stop-opacity:1;stop-color:#f8e783" /><stop
         id="stop34"
         offset="1"
         style="stop-opacity:1;stop-color:#f8e783" /></linearGradient><linearGradient
       id="linearGradient62"
       spreadMethod="pad"
       gradientTransform="matrix(0,33.932899,33.932899,0,262.07266,212.67511)"
       gradientUnits="userSpaceOnUse"
       y2="0"
       x2="1"
       y1="0"
       x1="0"><stop
         id="stop52"
         offset="0"
         style="stop-opacity:1;stop-color:#a7743b" /><stop
         id="stop54"
         offset="0.19288215"
         style="stop-opacity:1;stop-color:#f8e783" /><stop
         id="stop56"
         offset="0.473761"
         style="stop-opacity:1;stop-color:#f8e783" /><stop
         id="stop58"
         offset="0.67854433"
         style="stop-opacity:1;stop-color:#f8e783" /><stop
         id="stop60"
         offset="1"
         style="stop-opacity:1;stop-color:#f8e783" /></linearGradient><linearGradient
       id="linearGradient88"
       spreadMethod="pad"
       gradientTransform="matrix(0,34.439255,34.439255,0,299.81241,212.67511)"
       gradientUnits="userSpaceOnUse"
       y2="0"
       x2="1"
       y1="0"
       x1="0"><stop
         id="stop78"
         offset="0"
         style="stop-opacity:1;stop-color:#a7743b" /><stop
         id="stop80"
         offset="0.19288215"
         style="stop-opacity:1;stop-color:#f8e783" /><stop
         id="stop82"
         offset="0.473761"
         style="stop-opacity:1;stop-color:#f8e783" /><stop
         id="stop84"
         offset="0.67854433"
         style="stop-opacity:1;stop-color:#f8e783" /><stop
         id="stop86"
         offset="1"
         style="stop-opacity:1;stop-color:#f8e783" /></linearGradient><linearGradient
       id="linearGradient114"
       spreadMethod="pad"
       gradientTransform="matrix(0,33.932899,33.932899,0,341.49368,212.67511)"
       gradientUnits="userSpaceOnUse"
       y2="0"
       x2="1"
       y1="0"
       x1="0"><stop
         id="stop104"
         offset="0"
         style="stop-opacity:1;stop-color:#a7743b" /><stop
         id="stop106"
         offset="0.19288215"
         style="stop-opacity:1;stop-color:#f8e783" /><stop
         id="stop108"
         offset="0.473761"
         style="stop-opacity:1;stop-color:#f8e783" /><stop
         id="stop110"
         offset="0.67854433"
         style="stop-opacity:1;stop-color:#f8e783" /><stop
         id="stop112"
         offset="1"
         style="stop-opacity:1;stop-color:#f8e783" /></linearGradient><linearGradient
       id="linearGradient140"
       spreadMethod="pad"
       gradientTransform="matrix(0,33.932899,33.932899,0,380.56912,212.67511)"
       gradientUnits="userSpaceOnUse"
       y2="0"
       x2="1"
       y1="0"
       x1="0"><stop
         id="stop130"
         offset="0"
         style="stop-opacity:1;stop-color:#a7743b" /><stop
         id="stop132"
         offset="0.19288215"
         style="stop-opacity:1;stop-color:#f8e783" /><stop
         id="stop134"
         offset="0.473761"
         style="stop-opacity:1;stop-color:#f8e783" /><stop
         id="stop136"
         offset="0.67854433"
         style="stop-opacity:1;stop-color:#f8e783" /><stop
         id="stop138"
         offset="1"
         style="stop-opacity:1;stop-color:#f8e783" /></linearGradient><linearGradient
       id="linearGradient166"
       spreadMethod="pad"
       gradientTransform="matrix(0,33.932899,33.932899,0,431.81613,212.67511)"
       gradientUnits="userSpaceOnUse"
       y2="0"
       x2="1"
       y1="0"
       x1="0"><stop
         id="stop156"
         offset="0"
         style="stop-opacity:1;stop-color:#a7743b" /><stop
         id="stop158"
         offset="0.19288215"
         style="stop-opacity:1;stop-color:#f8e783" /><stop
         id="stop160"
         offset="0.473761"
         style="stop-opacity:1;stop-color:#f8e783" /><stop
         id="stop162"
         offset="0.67854433"
         style="stop-opacity:1;stop-color:#f8e783" /><stop
         id="stop164"
         offset="1"
         style="stop-opacity:1;stop-color:#f8e783" /></linearGradient><linearGradient
       id="linearGradient192"
       spreadMethod="pad"
       gradientTransform="matrix(0,33.932899,33.932899,0,463.65872,212.67511)"
       gradientUnits="userSpaceOnUse"
       y2="0"
       x2="1"
       y1="0"
       x1="0"><stop
         id="stop182"
         offset="0"
         style="stop-opacity:1;stop-color:#a7743b" /><stop
         id="stop184"
         offset="0.19288215"
         style="stop-opacity:1;stop-color:#f8e783" /><stop
         id="stop186"
         offset="0.473761"
         style="stop-opacity:1;stop-color:#f8e783" /><stop
         id="stop188"
         offset="0.67854433"
         style="stop-opacity:1;stop-color:#f8e783" /><stop
         id="stop190"
         offset="1"
         style="stop-opacity:1;stop-color:#f8e783" /></linearGradient><linearGradient
       id="linearGradient218"
       spreadMethod="pad"
       gradientTransform="matrix(0,34.439255,34.439255,0,496.83563,212.67511)"
       gradientUnits="userSpaceOnUse"
       y2="0"
       x2="1"
       y1="0"
       x1="0"><stop
         id="stop208"
         offset="0"
         style="stop-opacity:1;stop-color:#a7743b" /><stop
         id="stop210"
         offset="0.19288215"
         style="stop-opacity:1;stop-color:#f8e783" /><stop
         id="stop212"
         offset="0.473761"
         style="stop-opacity:1;stop-color:#f8e783" /><stop
         id="stop214"
         offset="0.67854433"
         style="stop-opacity:1;stop-color:#f8e783" /><stop
         id="stop216"
         offset="1"
         style="stop-opacity:1;stop-color:#f8e783" /></linearGradient><linearGradient
       id="linearGradient244"
       spreadMethod="pad"
       gradientTransform="matrix(0,34.162804,34.162804,0,533.08099,212.44521)"
       gradientUnits="userSpaceOnUse"
       y2="0"
       x2="1"
       y1="0"
       x1="0"><stop
         id="stop234"
         offset="0"
         style="stop-opacity:1;stop-color:#a7743b" /><stop
         id="stop236"
         offset="0.19288215"
         style="stop-opacity:1;stop-color:#f8e783" /><stop
         id="stop238"
         offset="0.473761"
         style="stop-opacity:1;stop-color:#f8e783" /><stop
         id="stop240"
         offset="0.67854433"
         style="stop-opacity:1;stop-color:#f8e783" /><stop
         id="stop242"
         offset="1"
         style="stop-opacity:1;stop-color:#f8e783" /></linearGradient><linearGradient
       id="linearGradient270"
       spreadMethod="pad"
       gradientTransform="matrix(0,35.107815,35.107815,0,569.7981,212.67511)"
       gradientUnits="userSpaceOnUse"
       y2="0"
       x2="1"
       y1="0"
       x1="0"><stop
         id="stop260"
         offset="0"
         style="stop-opacity:1;stop-color:#a7743b" /><stop
         id="stop262"
         offset="0.19288215"
         style="stop-opacity:1;stop-color:#f8e783" /><stop
         id="stop264"
         offset="0.473761"
         style="stop-opacity:1;stop-color:#f8e783" /><stop
         id="stop266"
         offset="0.67854433"
         style="stop-opacity:1;stop-color:#f8e783" /><stop
         id="stop268"
         offset="1"
         style="stop-opacity:1;stop-color:#f8e783" /></linearGradient><linearGradient
       id="linearGradient296"
       spreadMethod="pad"
       gradientTransform="matrix(0,33.932899,33.932899,0,602.36853,212.67511)"
       gradientUnits="userSpaceOnUse"
       y2="0"
       x2="1"
       y1="0"
       x1="0"><stop
         id="stop286"
         offset="0"
         style="stop-opacity:1;stop-color:#a7743b" /><stop
         id="stop288"
         offset="0.19288215"
         style="stop-opacity:1;stop-color:#f8e783" /><stop
         id="stop290"
         offset="0.473761"
         style="stop-opacity:1;stop-color:#f8e783" /><stop
         id="stop292"
         offset="0.67854433"
         style="stop-opacity:1;stop-color:#f8e783" /><stop
         id="stop294"
         offset="1"
         style="stop-opacity:1;stop-color:#f8e783" /></linearGradient><linearGradient
       id="linearGradient322"
       spreadMethod="pad"
       gradientTransform="matrix(0,16.788479,16.788479,0,360.05914,173.24165)"
       gradientUnits="userSpaceOnUse"
       y2="0"
       x2="1"
       y1="0"
       x1="0"><stop
         id="stop312"
         offset="0"
         style="stop-opacity:1;stop-color:#a7743b" /><stop
         id="stop314"
         offset="0.19288215"
         style="stop-opacity:1;stop-color:#f8e783" /><stop
         id="stop316"
         offset="0.473761"
         style="stop-opacity:1;stop-color:#f8e783" /><stop
         id="stop318"
         offset="0.67854433"
         style="stop-opacity:1;stop-color:#f8e783" /><stop
         id="stop320"
         offset="1"
         style="stop-opacity:1;stop-color:#f8e783" /></linearGradient><linearGradient
       id="linearGradient348"
       spreadMethod="pad"
       gradientTransform="matrix(0,17.301369,17.301369,0,381.09463,172.97945)"
       gradientUnits="userSpaceOnUse"
       y2="0"
       x2="1"
       y1="0"
       x1="0"><stop
         id="stop338"
         offset="0"
         style="stop-opacity:1;stop-color:#a7743b" /><stop
         id="stop340"
         offset="0.19288215"
         style="stop-opacity:1;stop-color:#f8e783" /><stop
         id="stop342"
         offset="0.473761"
         style="stop-opacity:1;stop-color:#f8e783" /><stop
         id="stop344"
         offset="0.67854433"
         style="stop-opacity:1;stop-color:#f8e783" /><stop
         id="stop346"
         offset="1"
         style="stop-opacity:1;stop-color:#f8e783" /></linearGradient><linearGradient
       id="linearGradient374"
       spreadMethod="pad"
       gradientTransform="matrix(0,16.992975,16.992975,0,405.08664,173.03717)"
       gradientUnits="userSpaceOnUse"
       y2="0"
       x2="1"
       y1="0"
       x1="0"><stop
         id="stop364"
         offset="0"
         style="stop-opacity:1;stop-color:#a7743b" /><stop
         id="stop366"
         offset="0.19288215"
         style="stop-opacity:1;stop-color:#f8e783" /><stop
         id="stop368"
         offset="0.473761"
         style="stop-opacity:1;stop-color:#f8e783" /><stop
         id="stop370"
         offset="0.67854433"
         style="stop-opacity:1;stop-color:#f8e783" /><stop
         id="stop372"
         offset="1"
         style="stop-opacity:1;stop-color:#f8e783" /></linearGradient><linearGradient
       id="linearGradient400"
       spreadMethod="pad"
       gradientTransform="matrix(0,16.788479,16.788479,0,430.1127,173.24165)"
       gradientUnits="userSpaceOnUse"
       y2="0"
       x2="1"
       y1="0"
       x1="0"><stop
         id="stop390"
         offset="0"
         style="stop-opacity:1;stop-color:#a7743b" /><stop
         id="stop392"
         offset="0.19288215"
         style="stop-opacity:1;stop-color:#f8e783" /><stop
         id="stop394"
         offset="0.473761"
         style="stop-opacity:1;stop-color:#f8e783" /><stop
         id="stop396"
         offset="0.67854433"
         style="stop-opacity:1;stop-color:#f8e783" /><stop
         id="stop398"
         offset="1"
         style="stop-opacity:1;stop-color:#f8e783" /></linearGradient><linearGradient
       id="linearGradient426"
       spreadMethod="pad"
       gradientTransform="matrix(0,17.301369,17.301369,0,454.82706,172.97945)"
       gradientUnits="userSpaceOnUse"
       y2="0"
       x2="1"
       y1="0"
       x1="0"><stop
         id="stop416"
         offset="0"
         style="stop-opacity:1;stop-color:#a7743b" /><stop
         id="stop418"
         offset="0.19288215"
         style="stop-opacity:1;stop-color:#f8e783" /><stop
         id="stop420"
         offset="0.473761"
         style="stop-opacity:1;stop-color:#f8e783" /><stop
         id="stop422"
         offset="0.67854433"
         style="stop-opacity:1;stop-color:#f8e783" /><stop
         id="stop424"
         offset="1"
         style="stop-opacity:1;stop-color:#f8e783" /></linearGradient><linearGradient
       id="linearGradient452"
       spreadMethod="pad"
       gradientTransform="matrix(0,16.992975,16.992975,0,478.81827,173.03717)"
       gradientUnits="userSpaceOnUse"
       y2="0"
       x2="1"
       y1="0"
       x1="0"><stop
         id="stop442"
         offset="0"
         style="stop-opacity:1;stop-color:#a7743b" /><stop
         id="stop444"
         offset="0.19288215"
         style="stop-opacity:1;stop-color:#f8e783" /><stop
         id="stop446"
         offset="0.473761"
         style="stop-opacity:1;stop-color:#f8e783" /><stop
         id="stop448"
         offset="0.67854433"
         style="stop-opacity:1;stop-color:#f8e783" /><stop
         id="stop450"
         offset="1"
         style="stop-opacity:1;stop-color:#f8e783" /></linearGradient><linearGradient
       id="linearGradient482"
       spreadMethod="pad"
       gradientTransform="matrix(0,-69.510498,-69.510498,0,419.93527,403.40784)"
       gradientUnits="userSpaceOnUse"
       y2="0"
       x2="1"
       y1="0"
       x1="0"><stop
         id="stop468"
         offset="0"
         style="stop-opacity:1;stop-color:#a7743b" /><stop
         id="stop470"
         offset="0.19288215"
         style="stop-opacity:1;stop-color:#f8e783" /><stop
         id="stop472"
         offset="0.473761"
         style="stop-opacity:1;stop-color:#f8e783" /><stop
         id="stop474"
         offset="0.59035666"
         style="stop-opacity:1;stop-color:#f8e783" /><stop
         id="stop476"
         offset="0.773381"
         style="stop-opacity:1;stop-color:#c3933d" /><stop
         id="stop478"
         offset="0.78250074"
         style="stop-opacity:1;stop-color:#c3933d" /><stop
         id="stop480"
         offset="1"
         style="stop-opacity:1;stop-color:#f8e783" /></linearGradient><linearGradient
       id="linearGradient512"
       spreadMethod="pad"
       gradientTransform="matrix(0,-75.716599,-75.716599,0,420.94501,343.9342)"
       gradientUnits="userSpaceOnUse"
       y2="0"
       x2="1"
       y1="0"
       x1="0"><stop
         id="stop498"
         offset="0"
         style="stop-opacity:1;stop-color:#a7743b" /><stop
         id="stop500"
         offset="0.19288215"
         style="stop-opacity:1;stop-color:#f8e783" /><stop
         id="stop502"
         offset="0.473761"
         style="stop-opacity:1;stop-color:#f8e783" /><stop
         id="stop504"
         offset="0.59035666"
         style="stop-opacity:1;stop-color:#f8e783" /><stop
         id="stop506"
         offset="0.773381"
         style="stop-opacity:1;stop-color:#c3933d" /><stop
         id="stop508"
         offset="0.78250074"
         style="stop-opacity:1;stop-color:#c3933d" /><stop
         id="stop510"
         offset="1"
         style="stop-opacity:1;stop-color:#f8e783" /></linearGradient><linearGradient
       id="linearGradient542"
       spreadMethod="pad"
       gradientTransform="matrix(0,-59.55938,-59.55938,0,405.27545,337.96622)"
       gradientUnits="userSpaceOnUse"
       y2="0"
       x2="1"
       y1="0"
       x1="0"><stop
         id="stop528"
         offset="0"
         style="stop-opacity:1;stop-color:#a7743b" /><stop
         id="stop530"
         offset="0.19288215"
         style="stop-opacity:1;stop-color:#f8e783" /><stop
         id="stop532"
         offset="0.473761"
         style="stop-opacity:1;stop-color:#f8e783" /><stop
         id="stop534"
         offset="0.59035666"
         style="stop-opacity:1;stop-color:#f8e783" /><stop
         id="stop536"
         offset="0.773381"
         style="stop-opacity:1;stop-color:#c3933d" /><stop
         id="stop538"
         offset="0.78250074"
         style="stop-opacity:1;stop-color:#c3933d" /><stop
         id="stop540"
         offset="1"
         style="stop-opacity:1;stop-color:#f8e783" /></linearGradient><linearGradient
       id="linearGradient572"
       spreadMethod="pad"
       gradientTransform="matrix(0,-33.835918,-33.835918,0,401.2695,422.29657)"
       gradientUnits="userSpaceOnUse"
       y2="0"
       x2="1"
       y1="0"
       x1="0"><stop
         id="stop558"
         offset="0"
         style="stop-opacity:1;stop-color:#a7743b" /><stop
         id="stop560"
         offset="0.19288215"
         style="stop-opacity:1;stop-color:#f8e783" /><stop
         id="stop562"
         offset="0.473761"
         style="stop-opacity:1;stop-color:#f8e783" /><stop
         id="stop564"
         offset="0.59035666"
         style="stop-opacity:1;stop-color:#f8e783" /><stop
         id="stop566"
         offset="0.773381"
         style="stop-opacity:1;stop-color:#c3933d" /><stop
         id="stop568"
         offset="0.78250074"
         style="stop-opacity:1;stop-color:#c3933d" /><stop
         id="stop570"
         offset="1"
         style="stop-opacity:1;stop-color:#f8e783" /></linearGradient></defs><g
     transform="matrix(1.3333333,0,0,-1.3333333,0,793.70133)"
     id="g10"><path
       id="path12"
       style="fill:#201f1f;fill-opacity:1;fill-rule:nonzero;stroke:none"
       d="M 0,0 H 841.89 V 595.276 H 0 Z" /><g
       id="g14"><g
         id="g16"><g
           id="g22"><g
             id="g24"><path
               id="path38"
               style="fill:url(#linearGradient36);stroke:none"
               d="m 226.615,246.608 v -0.346 c 1.047,0.061 1.721,-0.158 2.021,-0.655 v 0 c 0.3,-0.5 0.449,-1.555 0.449,-3.166 v 0 -25.783 c 0,-1.55 -0.134,-2.544 -0.404,-2.982 v 0 c -0.269,-0.437 -0.958,-0.655 -2.066,-0.655 v 0 -0.346 h 8.829 v 0.346 c -0.824,0 -1.397,0.103 -1.719,0.31 v 0 c -0.323,0.207 -0.539,0.468 -0.651,0.783 v 0 c -0.113,0.315 -0.169,1.178 -0.169,2.59 v 0 26.037 c 0,1.318 0.048,2.155 0.145,2.509 v 0 c 0.099,0.352 0.413,0.621 0.945,0.805 v 0 c 0.532,0.185 1.014,0.254 1.449,0.207 v 0 0.346 z" /></g></g></g></g><g
       id="g40"><g
         id="g42"><g
           id="g48"><g
             id="g50"><path
               id="path64"
               style="fill:url(#linearGradient62);stroke:none"
               d="m 244.267,246.608 v -0.346 c 0.974,0 1.614,-0.191 1.922,-0.575 v 0 c 0.307,-0.384 0.461,-1.497 0.461,-3.339 v 0 -24.7 c 0,-1.75 -0.128,-2.959 -0.383,-3.626 v 0 c -0.255,-0.667 -0.787,-1.001 -1.595,-1.001 v 0 h -0.405 v -0.346 h 15.548 c 4.028,0 7.005,0.319 8.93,0.956 v 0 c 1.925,0.638 3.756,1.82 5.494,3.547 v 0 c 1.737,1.729 3.111,3.786 4.122,6.174 v 0 c 1.011,2.388 1.517,4.819 1.517,7.291 v 0 c 0,2.566 -0.488,4.889 -1.461,6.969 v 0 c -0.974,2.081 -2.291,3.79 -3.954,5.126 v 0 c -1.662,1.336 -3.614,2.315 -5.853,2.937 v 0 c -2.239,0.622 -5.291,0.933 -9.154,0.933 v 0 z m 9.819,-32.493 c -1.319,0.36 -2.251,0.944 -2.798,1.751 v 0 c -0.546,0.806 -0.819,2.039 -0.819,3.696 v 0 26.332 h 5.077 c 6.919,0 12.099,-1.658 15.536,-4.976 v 0 c 3.437,-3.317 5.156,-7.24 5.156,-11.772 v 0 c 0,-3.854 -1.255,-7.414 -3.763,-10.676 v 0 c -2.509,-3.265 -6.864,-4.896 -13.064,-4.896 v 0 c -2.232,0 -4.008,0.181 -5.325,0.541" /></g></g></g></g><g
       id="g66"><g
         id="g68"><g
           id="g74"><g
             id="g76"><path
               id="path90"
               style="fill:url(#linearGradient88);stroke:none"
               d="m 299.346,247.114 -11.995,-31.029 c -0.539,-1.381 -1.032,-2.24 -1.481,-2.57 v 0 c -0.449,-0.328 -1.003,-0.494 -1.661,-0.494 v 0 -0.346 h 4.92 v 0.346 c -0.734,0 -1.101,0.254 -1.101,0.76 v 0 c 0,0.215 0.172,0.783 0.516,1.705 v 0 l 5.011,12.809 h 9.712 l 4.735,-12.048 c 0.014,0 0.036,-0.079 0.066,-0.232 v 0 c 0.046,-0.138 0.098,-0.238 0.158,-0.299 v 0 c 0.343,-0.846 0.516,-1.459 0.516,-1.844 v 0 c 0,-0.567 -0.352,-0.851 -1.055,-0.851 v 0 -0.346 h 7.729 v 0.346 c -1.24,0 -2.163,0.649 -2.769,1.948 v 0 c -0.604,1.298 -0.908,2.025 -0.908,2.179 v 0 l -11.798,29.966 z m -0.994,-6.312 4.471,-11.564 h -8.951 z" /></g></g></g></g><g
       id="g92"><g
         id="g94"><g
           id="g100"><g
             id="g102"><path
               id="path116"
               style="fill:url(#linearGradient114);stroke:none"
               d="m 353.21,246.608 -11.676,-27.755 -11.638,27.755 h -6.242 v -0.346 c 0.572,0 1.165,-0.153 1.781,-0.46 v 0 c 0.615,-0.308 1.232,-1.223 1.847,-2.743 v 0 l -3.784,-27.412 c -0.061,-0.523 -0.15,-0.994 -0.27,-1.418 v 0 c -0.12,-0.421 -0.288,-0.728 -0.505,-0.921 v 0 c -0.218,-0.192 -0.707,-0.287 -1.473,-0.287 v 0 -0.346 h 5.056 v 0.346 c -1.01,0 -1.515,0.442 -1.515,1.324 v 0 c 0,0.488 0.031,0.922 0.091,1.303 v 0 l 3.356,25.062 11.93,-28.035 h 0.225 l 11.862,28.081 3.397,-24.922 c 0.09,-0.671 0.134,-1.12 0.134,-1.349 v 0 c 0,-1.008 -0.495,-1.495 -1.487,-1.464 v 0 -0.346 h 7.438 v 0.346 c -0.825,0.077 -1.368,0.293 -1.63,0.652 v 0 c -0.262,0.358 -0.497,1.177 -0.707,2.457 v 0 l -3.48,25.706 c -0.09,0.676 -0.135,1.206 -0.135,1.592 v 0 c 0,1.796 0.883,2.743 2.648,2.834 v 0 0.346 z" /></g></g></g></g><g
       id="g118"><g
         id="g120"><g
           id="g126"><g
             id="g128"><path
               id="path142"
               style="fill:url(#linearGradient140);stroke:none"
               d="m 388.511,246.608 v -0.346 h 0.135 c 0.644,0 0.967,-0.253 0.967,-0.759 v 0 c 0,-0.123 -0.083,-0.351 -0.249,-0.681 v 0 c -0.164,-0.329 -0.314,-0.556 -0.449,-0.678 v 0 l -7.29,-11.381 -6.675,11.294 c -0.375,0.612 -0.563,1.062 -0.563,1.355 v 0 c 0,0.567 0.365,0.85 1.094,0.85 v 0 0.346 h -7.819 v -0.346 c 1.048,0.047 2,-0.66 2.853,-2.12 v 0 l 8.111,-13.763 v -14.343 l 0.045,-0.966 c 0,-1.474 -0.847,-2.156 -2.538,-2.049 v 0 -0.346 h 8.851 v 0.346 c -1.058,0 -1.746,0.194 -2.063,0.585 v 0 c -0.318,0.391 -0.476,1.214 -0.476,2.47 v 0 15.533 l 8.088,12.58 c 0.524,0.814 0.989,1.352 1.394,1.613 v 0 c 0.404,0.26 0.92,0.414 1.549,0.46 v 0 0.346 z" /></g></g></g></g><g
       id="g144"><g
         id="g146"><g
           id="g152"><g
             id="g154"><path
               id="path168"
               style="fill:url(#linearGradient166);stroke:none"
               d="m 420.089,246.608 v -0.346 c 0.674,0 1.197,-0.108 1.573,-0.323 v 0 c 0.373,-0.214 0.595,-0.544 0.662,-0.988 v 0 c 0.068,-0.446 0.102,-1.282 0.102,-2.51 v 0 -25.553 c 0,-1.733 -0.142,-2.812 -0.428,-3.234 v 0 c -0.284,-0.422 -0.936,-0.633 -1.955,-0.633 v 0 -0.346 h 12.785 c 2.41,0 4.286,0.287 5.628,0.863 v 0 c 1.34,0.577 2.53,1.741 3.571,3.491 v 0 c 1.041,1.751 1.562,3.692 1.562,5.828 v 0 c 0,2.288 -0.606,4.235 -1.819,5.84 v 0 c -1.215,1.604 -3.011,2.614 -5.393,3.03 v 0 c 2.756,1.658 4.133,3.923 4.133,6.795 v 0 c 0,1.46 -0.336,2.76 -1.01,3.906 v 0 c -0.673,1.143 -1.49,2.018 -2.449,2.625 v 0 c -0.96,0.607 -1.962,1.018 -3.01,1.232 v 0 c -1.049,0.216 -2.831,0.323 -5.347,0.323 v 0 z m 6.156,-0.714 h 0.876 c 2.576,0 4.526,-0.292 5.853,-0.876 v 0 c 1.325,-0.583 2.333,-1.447 3.022,-2.59 v 0 c 0.689,-1.146 1.032,-2.571 1.032,-4.274 v 0 c 0,-1.583 -0.445,-3.173 -1.335,-4.769 v 0 c -0.891,-1.598 -2.701,-2.396 -5.426,-2.396 v 0 h -4.022 z m 2.853,-31.872 c -0.883,0.301 -1.524,0.695 -1.92,1.188 v 0 c -0.398,0.491 -0.652,0.958 -0.765,1.405 v 0 c -0.112,0.445 -0.168,1.413 -0.168,2.902 v 0 10.758 h 2.583 c 3.161,0 5.336,-0.169 6.527,-0.507 v 0 c 1.191,-0.337 2.257,-1.289 3.201,-2.856 v 0 c 0.944,-1.566 1.415,-3.594 1.415,-6.082 v 0 c 0,-2.396 -0.531,-4.204 -1.595,-5.426 v 0 c -1.062,-1.22 -2.882,-1.83 -5.459,-1.83 v 0 c -1.661,0 -2.936,0.149 -3.819,0.448" /></g></g></g></g><g
       id="g170"><g
         id="g172"><g
           id="g178"><g
             id="g180"><path
               id="path194"
               style="fill:url(#linearGradient192);stroke:none"
               d="m 452.345,246.608 v -0.392 c 1.14,0 1.813,-0.252 2.025,-0.759 v 0 c 0.207,-0.506 0.314,-1.382 0.314,-2.624 v 0 -27.395 c 0,-1.06 -0.199,-1.715 -0.596,-1.969 v 0 c -0.398,-0.253 -0.978,-0.402 -1.743,-0.448 v 0 -0.346 h 22.626 v 4.652 h -0.337 c -0.195,-1.311 -0.472,-2.161 -0.83,-2.55 v 0 c -0.361,-0.39 -0.797,-0.649 -1.314,-0.78 v 0 c -0.515,-0.128 -1.701,-0.194 -3.556,-0.194 v 0 h -5.832 c -1.256,0 -2.196,0.089 -2.817,0.266 v 0 c -0.62,0.176 -1.071,0.613 -1.356,1.313 v 0 c -0.285,0.698 -0.426,1.839 -0.426,3.421 v 0 10.482 h 10.402 c 0.749,0 1.261,-0.078 1.538,-0.231 v 0 c 0.277,-0.153 0.453,-0.454 0.529,-0.898 v 0 h 0.336 v 3.202 h -0.336 c -0.016,-0.369 -0.158,-0.648 -0.427,-0.841 v 0 c -0.271,-0.193 -0.906,-0.289 -1.91,-0.289 v 0 h -10.132 v 15.228 h 10.918 c 1.199,0 1.951,-0.154 2.259,-0.461 v 0 c 0.305,-0.307 0.685,-1.327 1.133,-3.063 v 0 h 0.338 v 4.676 z" /></g></g></g></g><g
       id="g196"><g
         id="g198"><g
           id="g204"><g
             id="g206"><path
               id="path220"
               style="fill:url(#linearGradient218);stroke:none"
               d="m 496.371,247.114 -11.996,-31.029 c -0.539,-1.381 -1.032,-2.24 -1.482,-2.57 v 0 c -0.449,-0.328 -1.002,-0.494 -1.66,-0.494 v 0 -0.346 h 4.92 v 0.346 c -0.734,0 -1.102,0.254 -1.102,0.76 v 0 c 0,0.215 0.172,0.783 0.518,1.705 v 0 l 5.009,12.809 h 9.713 l 4.734,-12.048 c 0.015,0 0.038,-0.079 0.068,-0.232 v 0 c 0.044,-0.138 0.098,-0.238 0.157,-0.299 v 0 c 0.344,-0.846 0.516,-1.459 0.516,-1.844 v 0 c 0,-0.567 -0.351,-0.851 -1.055,-0.851 v 0 -0.346 h 7.727 v 0.346 c -1.239,0 -2.161,0.649 -2.766,1.948 v 0 c -0.606,1.298 -0.907,2.025 -0.907,2.179 v 0 l -11.8,29.966 z m -0.996,-6.312 4.471,-11.564 h -8.949 z" /></g></g></g></g><g
       id="g222"><g
         id="g224"><g
           id="g230"><g
             id="g232"><path
               id="path246"
               style="fill:url(#linearGradient244);stroke:none"
               d="m 539.754,246.608 v -0.346 h 0.314 c 0.734,0 1.274,-0.188 1.619,-0.564 v 0 c 0.343,-0.376 0.515,-1.571 0.515,-3.582 v 0 -22.968 c -2.766,-3.303 -5.937,-4.953 -9.514,-4.953 v 0 c -2.273,0 -4.302,0.833 -6.081,2.5 v 0 c -1.78,1.666 -2.67,4.45 -2.67,8.352 v 0 18.635 c 0,1.121 0.191,1.832 0.574,2.13 v 0 c 0.381,0.301 1.037,0.45 1.965,0.45 v 0 0.346 h -8.784 v -0.346 c 1.047,0 1.714,-0.165 1.999,-0.494 v 0 c 0.284,-0.331 0.426,-1.111 0.426,-2.34 v 0 -20.317 c 0,-3.333 0.962,-5.944 2.885,-7.832 v 0 c 1.922,-1.89 4.521,-2.834 7.8,-2.834 v 0 c 4.413,0 8.214,1.819 11.4,5.46 v 0 -5.23 h 6.269 v 0.346 c -0.779,0 -1.33,0.112 -1.651,0.334 v 0 c -0.323,0.222 -0.536,0.502 -0.641,0.839 v 0 c -0.105,0.339 -0.157,1.053 -0.157,2.142 v 0 27.624 c 0,0.86 0.138,1.444 0.417,1.75 v 0 c 0.276,0.307 0.954,0.49 2.032,0.552 v 0 0.346 z" /></g></g></g></g><g
       id="g248"><g
         id="g250"><g
           id="g256"><g
             id="g258"><path
               id="path272"
               style="fill:url(#linearGradient270);stroke:none"
               d="m 583.38,247.783 c -0.181,-0.553 -0.46,-0.887 -0.843,-1.003 v 0 c -0.381,-0.114 -1.005,-0.172 -1.871,-0.172 v 0 h -21.96 c -0.867,0 -1.431,0.058 -1.693,0.172 v 0 c -0.262,0.116 -0.527,0.45 -0.796,1.003 v 0 h -0.337 l 1.572,-4.101 h 0.337 c -0.119,0.415 -0.179,0.722 -0.179,0.922 v 0 c 0,0.399 0.127,0.649 0.381,0.75 v 0 c 0.254,0.098 0.8,0.149 1.636,0.149 v 0 h 8.272 V 215.99 c 0,-1.165 -0.142,-1.934 -0.427,-2.302 v 0 c -0.285,-0.368 -0.989,-0.59 -2.112,-0.667 v 0 -0.346 h 8.964 v 0.346 c -0.718,0 -1.238,0.058 -1.561,0.172 v 0 c -0.322,0.115 -0.575,0.391 -0.763,0.829 v 0 c -0.188,0.437 -0.281,1.254 -0.281,2.451 v 0 29.03 h 8.631 c 0.537,0 0.929,-0.051 1.176,-0.149 v 0 c 0.247,-0.101 0.37,-0.329 0.37,-0.682 v 0 c 0,-0.414 -0.03,-0.744 -0.089,-0.99 v 0 h 0.336 l 1.574,4.101 z" /></g></g></g></g><g
       id="g274"><g
         id="g276"><g
           id="g282"><g
             id="g284"><path
               id="path298"
               style="fill:url(#linearGradient296);stroke:none"
               d="m 610.311,246.608 v -0.346 h 0.136 c 0.643,0 0.964,-0.253 0.964,-0.759 v 0 c 0,-0.123 -0.082,-0.351 -0.247,-0.681 v 0 c -0.165,-0.329 -0.314,-0.556 -0.45,-0.678 v 0 l -7.289,-11.381 -6.676,11.294 c -0.375,0.612 -0.561,1.062 -0.561,1.355 v 0 c 0,0.567 0.364,0.85 1.092,0.85 v 0 0.346 h -7.819 v -0.346 c 1.049,0.047 2,-0.66 2.853,-2.12 v 0 l 8.111,-13.763 v -14.343 l 0.045,-0.966 c 0,-1.474 -0.846,-2.156 -2.539,-2.049 v 0 -0.346 h 8.853 v 0.346 c -1.059,0 -1.745,0.194 -2.063,0.585 v 0 c -0.317,0.391 -0.477,1.214 -0.477,2.47 v 0 15.533 l 8.089,12.58 c 0.524,0.814 0.987,1.352 1.392,1.613 v 0 c 0.405,0.26 0.922,0.414 1.55,0.46 v 0 0.346 z" /></g></g></g></g><g
       id="g300"><g
         id="g302"><g
           id="g308"><g
             id="g310"><path
               id="path324"
               style="fill:url(#linearGradient322);stroke:none"
               d="m 354.407,190.03 v -0.171 c 0.593,-0.016 0.948,-0.131 1.067,-0.349 v 0 c 0.119,-0.216 0.178,-0.567 0.178,-1.052 v 0 -13.736 c 0,-0.478 -0.075,-0.816 -0.229,-1.013 v 0 c -0.151,-0.199 -0.483,-0.296 -0.994,-0.296 v 0 -0.171 h 11.282 v 4.034 h -0.167 c -0.051,-1.345 -0.302,-2.26 -0.749,-2.746 v 0 c -0.448,-0.486 -1.153,-0.729 -2.114,-0.729 v 0 h -1.998 c -1.147,0 -1.957,0.206 -2.431,0.62 v 0 c -0.474,0.414 -0.711,1.127 -0.711,2.137 v 0 11.785 c 0,0.509 0.027,0.836 0.079,0.98 v 0 c 0.051,0.144 0.159,0.27 0.322,0.375 v 0 c 0.163,0.108 0.448,0.161 0.856,0.161 v 0 0.171 z" /></g></g></g></g><g
       id="g326"><g
         id="g328"><g
           id="g334"><g
             id="g336"><path
               id="path350"
               style="fill:url(#linearGradient348);stroke:none"
               d="m 376.788,188.849 c -1.402,-0.953 -2.45,-2.185 -3.146,-3.697 v 0 c -0.696,-1.512 -1.045,-2.987 -1.045,-4.423 v 0 c 0,-2.128 0.723,-3.95 2.167,-5.47 v 0 c 1.446,-1.519 3.302,-2.28 5.57,-2.28 v 0 c 2.793,0 5.034,0.942 6.725,2.827 v 0 c 1.689,1.885 2.533,4.206 2.533,6.963 v 0 c 0,2.144 -0.73,3.932 -2.189,5.363 v 0 c -1.46,1.431 -3.339,2.149 -5.636,2.149 v 0 c -1.919,0 -3.579,-0.476 -4.979,-1.432 m -0.523,-12.279 c -1.615,1.801 -2.423,3.89 -2.423,6.269 v 0 c 0,1.861 0.661,3.418 1.985,4.671 v 0 c 1.322,1.255 2.795,1.882 4.418,1.882 v 0 c 1.148,0 2.398,-0.376 3.751,-1.127 v 0 c 1.352,-0.755 2.452,-1.796 3.301,-3.125 v 0 c 0.849,-1.329 1.273,-2.808 1.273,-4.433 v 0 c 0,-1.148 -0.315,-2.264 -0.945,-3.351 v 0 c -0.63,-1.086 -1.493,-1.94 -2.59,-2.56 v 0 c -1.097,-0.618 -2.208,-0.927 -3.334,-0.927 v 0 c -2.009,0 -3.821,0.9 -5.436,2.701" /></g></g></g></g><g
       id="g352"><g
         id="g354"><g
           id="g360"><g
             id="g362"><path
               id="path376"
               style="fill:url(#linearGradient374);stroke:none"
               d="m 410.583,190.03 v -0.171 c 0.348,0 0.632,-0.072 0.856,-0.212 v 0 c 0.222,-0.139 0.333,-0.529 0.333,-1.167 v 0 -11.848 l -12.27,13.398 h -3.079 v -0.171 c 0.978,0.045 1.602,-0.248 1.872,-0.878 v 0 c 0.271,-0.63 0.406,-1.443 0.406,-2.437 v 0 -11.355 c 0,-0.774 -0.068,-1.265 -0.205,-1.468 v 0 c -0.138,-0.205 -0.488,-0.308 -1.051,-0.308 v 0 -0.171 h 3.146 v 0.171 c -0.445,0.068 -0.724,0.136 -0.833,0.205 v 0 c -0.112,0.068 -0.198,0.198 -0.256,0.387 v 0 c -0.059,0.19 -0.089,0.482 -0.089,0.878 v 0 12.412 l 13.06,-14.258 v 15.283 c 0,0.623 0.091,1.03 0.278,1.225 v 0 c 0.185,0.193 0.518,0.298 1,0.314 v 0 0.171 z" /></g></g></g></g><g
       id="g378"><g
         id="g380"><g
           id="g386"><g
             id="g388"><path
               id="path402"
               style="fill:url(#linearGradient400);stroke:none"
               d="m 421.303,190.03 v -0.171 c 0.482,0 0.799,-0.096 0.951,-0.286 v 0 c 0.151,-0.19 0.228,-0.74 0.228,-1.65 v 0 -12.221 c 0,-0.865 -0.063,-1.464 -0.189,-1.794 v 0 c -0.127,-0.33 -0.389,-0.495 -0.79,-0.495 v 0 h -0.2 v -0.171 h 7.692 c 1.994,0 3.467,0.158 4.418,0.473 v 0 c 0.952,0.315 1.859,0.901 2.718,1.754 v 0 c 0.86,0.855 1.541,1.874 2.04,3.055 v 0 c 0.5,1.183 0.751,2.385 0.751,3.606 v 0 c 0,1.27 -0.241,2.42 -0.723,3.449 v 0 c -0.481,1.029 -1.135,1.875 -1.956,2.537 v 0 c -0.822,0.661 -1.789,1.144 -2.896,1.452 v 0 c -1.108,0.307 -2.619,0.462 -4.529,0.462 v 0 z m 4.857,-16.076 c -0.651,0.178 -1.113,0.467 -1.383,0.866 v 0 c -0.27,0.399 -0.406,1.008 -0.406,1.829 v 0 13.026 h 2.512 c 3.423,0 5.986,-0.819 7.686,-2.46 v 0 c 1.701,-1.641 2.552,-3.583 2.552,-5.824 v 0 c 0,-1.907 -0.62,-3.669 -1.862,-5.283 v 0 c -1.241,-1.614 -3.396,-2.421 -6.463,-2.421 v 0 c -1.105,0 -1.983,0.089 -2.636,0.267" /></g></g></g></g><g
       id="g404"><g
         id="g406"><g
           id="g412"><g
             id="g414"><path
               id="path428"
               style="fill:url(#linearGradient426);stroke:none"
               d="m 450.52,188.849 c -1.402,-0.953 -2.451,-2.185 -3.146,-3.697 v 0 c -0.696,-1.512 -1.044,-2.987 -1.044,-4.423 v 0 c 0,-2.128 0.722,-3.95 2.167,-5.47 v 0 c 1.444,-1.519 3.302,-2.28 5.569,-2.28 v 0 c 2.794,0 5.035,0.942 6.724,2.827 v 0 c 1.69,1.885 2.534,4.206 2.534,6.963 v 0 c 0,2.144 -0.73,3.932 -2.189,5.363 v 0 c -1.46,1.431 -3.339,2.149 -5.636,2.149 v 0 c -1.92,0 -3.579,-0.476 -4.979,-1.432 m -0.523,-12.279 c -1.616,1.801 -2.423,3.89 -2.423,6.269 v 0 c 0,1.861 0.66,3.418 1.985,4.671 v 0 c 1.323,1.255 2.795,1.882 4.417,1.882 v 0 c 1.149,0 2.399,-0.376 3.751,-1.127 v 0 c 1.352,-0.755 2.454,-1.796 3.302,-3.125 v 0 c 0.849,-1.329 1.273,-2.808 1.273,-4.433 v 0 c 0,-1.148 -0.315,-2.264 -0.946,-3.351 v 0 c -0.63,-1.086 -1.492,-1.94 -2.588,-2.56 v 0 c -1.097,-0.618 -2.209,-0.927 -3.335,-0.927 v 0 c -2.009,0 -3.821,0.9 -5.436,2.701" /></g></g></g></g><g
       id="g430"><g
         id="g432"><g
           id="g438"><g
             id="g440"><path
               id="path454"
               style="fill:url(#linearGradient452);stroke:none"
               d="m 484.314,190.03 v -0.171 c 0.349,0 0.634,-0.072 0.857,-0.212 v 0 c 0.222,-0.139 0.333,-0.529 0.333,-1.167 v 0 -11.848 l -12.271,13.398 h -3.079 v -0.171 c 0.978,0.045 1.603,-0.248 1.873,-0.878 v 0 c 0.27,-0.63 0.405,-1.443 0.405,-2.437 v 0 -11.355 c 0,-0.774 -0.069,-1.265 -0.206,-1.468 v 0 c -0.136,-0.205 -0.486,-0.308 -1.05,-0.308 v 0 -0.171 h 3.147 v 0.171 c -0.446,0.068 -0.722,0.136 -0.835,0.205 v 0 c -0.11,0.068 -0.196,0.198 -0.255,0.387 v 0 c -0.06,0.19 -0.09,0.482 -0.09,0.878 v 0 12.412 l 13.062,-14.258 v 15.283 c 0,0.623 0.092,1.03 0.277,1.225 v 0 c 0.186,0.193 0.519,0.298 1.001,0.314 v 0 0.171 z" /></g></g></g></g><g
       id="g456"><g
         id="g458"><g
           id="g464"><g
             id="g466"><path
               id="path484"
               style="fill:url(#linearGradient482);stroke:none"
               d="m 429.07,402.929 c -2.257,-0.436 -4.602,-0.76 -6.497,-2.403 v 0 c 0.716,-1.163 1.769,-0.846 2.646,-0.984 v 0 c 6.779,-1.066 12.655,-3.909 17.171,-9.311 v 0 c 10.829,-12.955 7.425,-34.023 -10.631,-38.835 v 0 c -5.808,-1.548 -11.782,-1.612 -17.74,-1.673 v 0 c -1.138,-0.012 -1.805,0.458 -1.707,1.734 v 0 c 0.541,7.053 -0.077,14.166 1.004,21.19 v 0 c 0.733,4.763 2.816,6.721 7.518,7.176 v 0 c 1.316,0.128 2.639,0.206 3.952,0.366 v 0 c 1.072,0.131 2.228,0.455 2.301,1.74 v 0 c 0.087,1.535 -1.261,1.835 -2.362,1.98 v 0 c -2.44,0.324 -4.896,0.342 -7.346,-0.062 v 0 c -9.573,-1.579 -19.157,-2.062 -28.776,-0.361 v 0 c -3.453,0.61 -6.944,0.944 -10.441,0.431 v 0 c -1.08,-0.159 -2.496,-0.283 -2.517,-1.821 v 0 c -0.022,-1.5 1.271,-1.768 2.422,-1.91 v 0 c 1.594,-0.196 3.204,-0.258 4.799,-0.455 v 0 c 3.757,-0.465 5.837,-2.291 6.681,-6.067 v 0 c 0.4,-1.783 0.652,-3.637 0.682,-5.464 v 0 c 0.115,-6.98 0.009,-13.964 0.207,-20.941 v 0 c 0.078,-2.721 -0.657,-4.527 -3.026,-5.937 v 0 c -2.979,-1.773 -5.553,-4.13 -7.319,-7.425 v 0 c 0.495,0.188 1.003,0.344 1.481,0.57 v 0 c 6.132,2.903 12.518,4.915 19.206,5.94 v 0 c 8.083,1.238 16.224,0.806 24.345,1.046 v 0 c 8.748,0.258 17.057,2.322 24.446,7.343 v 0 c 8.579,5.827 14.309,13.65 14.645,24.536 v 0 c 0.499,16.156 -14.26,30.078 -30.107,30.076 v 0 c -1.671,0 -3.358,-0.155 -5.037,-0.479" /></g></g></g></g><g
       id="g486"><g
         id="g488"><g
           id="g494"><g
             id="g496"><path
               id="path514"
               style="fill:url(#linearGradient512);stroke:none"
               d="m 447.934,343.763 c -5.108,-2.524 -10.512,-4.137 -16.012,-5.147 v 0 c -0.012,-1.191 0.722,-1.415 1.229,-1.785 v 0 c 13.671,-9.94 18.755,-23.771 17.258,-40.462 v 0 c -0.826,-9.191 -7.124,-15.632 -15.988,-17.057 v 0 c -7.138,-1.147 -14.137,0.034 -21.154,0.991 v 0 c -10.028,1.366 -19.991,1.71 -29.696,-1.882 v 0 c -5.425,-2.008 -10.488,-4.717 -14.541,-9.246 v 0 c 0.359,0.035 0.737,0.004 1.074,0.113 v 0 c 12.937,4.167 26.034,4.049 39.266,1.769 v 0 c 9.292,-1.601 18.499,-3.627 28.114,-2.524 v 0 c 19.966,2.291 34.27,17.725 35.327,38.262 v 0 c 0.928,18.003 -11.559,30.733 -22.72,36.663 v 0 c -0.467,0.248 -0.942,0.476 -1.441,0.476 v 0 c -0.233,0 -0.471,-0.05 -0.716,-0.171" /></g></g></g></g><g
       id="g516"><g
         id="g518"><g
           id="g524"><g
             id="g526"><path
               id="path544"
               style="fill:url(#linearGradient542);stroke:none"
               d="m 409.535,337.947 c -5.089,-0.43 -10.143,-0.964 -15.135,-2.206 v 0 c -2.993,-0.743 -4.104,-2.175 -4.071,-5.403 v 0 c 0.131,-12.799 -0.049,-25.602 0.015,-38.401 v 0 c 0.011,-2.309 -0.763,-3.535 -2.832,-4.347 v 0 c -3.55,-1.392 -6.799,-3.399 -9.725,-5.901 v 0 c -0.965,-0.826 -2.145,-1.561 -2.382,-3.04 v 0 c 0.297,-0.117 0.502,-0.283 0.626,-0.233 v 0 c 0.79,0.309 1.57,0.651 2.341,1.011 v 0 c 7.998,3.723 16.431,5.084 25.142,4.683 v 0 c 6.522,-0.3 12.947,-1.501 19.399,-2.469 v 0 c 4.192,-0.63 8.449,-0.621 12.233,2.255 v 0 c -7.2,-0.436 -13.533,2.48 -20.056,4.724 v 0 c -2.451,0.842 -3.192,2.097 -3.129,4.6 v 0 c 0.135,5.427 0.002,10.86 0.009,16.291 v 0 c 0.012,8.436 0.041,16.874 0.083,25.311 v 0 c 0.01,1.686 -0.056,3.144 -2.096,3.144 v 0 c -0.132,0 -0.273,-0.006 -0.422,-0.019" /></g></g></g></g><g
       id="g546"><g
         id="g548"><g
           id="g554"><g
             id="g556"><path
               id="path574"
               style="fill:url(#linearGradient572);stroke:none"
               d="m 401.314,422.295 c -9.235,-0.11 -16.64,-7.749 -16.572,-17.098 v 0 c 0.067,-9.188 7.546,-16.737 16.581,-16.736 v 0 c 9.265,10e-4 16.512,7.49 16.474,17.025 v 0 c -0.037,9.136 -7.502,16.811 -16.301,16.81 v 0 c -0.06,0 -0.121,0 -0.182,-10e-4" /></g></g></g></g></g></svg>